# xmcd
#
# Track frame offsets: 
#        150
#        4063
#        29398
#        55549
#        57029
#        73388
#        121655
#        168920
#        182053
#        199602
#        211692
#        243972
#        266255
#        279858
#
# Disc length: 4003 seconds
#
# Revision: 0
# Processed by: cddbd v1.5.2PL0 Copyright (c) Steve Scherf et al.
# Submitted via: ExactAudioCopyFreeDBPlugin 1.0
#
DISCID=b10fa10e
DTITLE=Tin Machine - His Master's Voice: New York And Paris Broadcasts
DTITLE=1989 And 1991 [CD1]
DYEAR=1989
DGENRE=Rock
TTITLE0=Intro
TTITLE1=Crack City
TTITLE2=You Belong In Rock And Roll
TTITLE3=Band Introductions
TTITLE4=A Big Hurt
TTITLE5=Bus Stop
TTITLE6=Betty Wrong
TTITLE7=Betty Wrong (Reprise)
TTITLE8=Goodbye Mr. Ed
TTITLE9=Debaser
TTITLE10=One Shot
TTITLE11=I Can't Read
TTITLE12=Under The God
TTITLE13=Baby Universal
EXTD=
EXTT0=
EXTT1=
EXTT2=
EXTT3=
EXTT4=
EXTT5=
EXTT6=
EXTT7=
EXTT8=
EXTT9=
EXTT10=
EXTT11=
EXTT12=
EXTT13=
PLAYORDER=
